<?xml version="1.0" standalone="no"?>
<!DOCTYPE svg PUBLIC "-//W3C//DTD SVG 20010904//EN"
 "http://www.w3.org/TR/2001/REC-SVG-20010904/DTD/svg10.dtd">
<svg version="1.0" xmlns="http://www.w3.org/2000/svg"
 width="512.000000pt" height="512.000000pt" viewBox="0 0 512.000000 512.000000"
 preserveAspectRatio="xMidYMid meet">

<g transform="translate(0.000000,512.000000) scale(0.100000,-0.100000)"
fill="#000000" stroke="none">
<path d="M3040 4440 l0 -200 -175 0 c-173 0 -176 0 -200 -25 l-25 -24 0 -1151
0 -1151 25 -24 c24 -25 27 -25 200 -25 l175 0 0 -200 0 -200 80 0 80 0 0 200
0 200 175 0 c173 0 176 0 200 25 l25 24 0 1151 0 1151 -25 24 c-24 25 -27 25
-200 25 l-175 0 0 200 0 200 -80 0 -80 0 0 -200z m400 -1400 l0 -1040 -320 0
-320 0 0 1040 0 1040 320 0 320 0 0 -1040z"/>
<path d="M800 3960 l0 -200 -175 0 c-173 0 -176 0 -200 -25 l-25 -24 0 -1151
0 -1151 25 -24 c24 -25 27 -25 200 -25 l175 0 0 -200 0 -200 80 0 80 0 0 200
0 200 175 0 c173 0 176 0 200 25 l25 24 0 1151 0 1151 -25 24 c-24 25 -27 25
-200 25 l-175 0 0 200 0 200 -80 0 -80 0 0 -200z m400 -1400 l0 -1040 -320 0
-320 0 0 1040 0 1040 320 0 320 0 0 -1040z"/>
<path d="M4160 3560 l0 -200 -175 0 c-173 0 -176 0 -200 -25 l-25 -24 0 -1151
0 -1151 25 -24 c24 -25 27 -25 200 -25 l175 0 0 -200 0 -200 80 0 80 0 0 200
0 200 175 0 c173 0 176 0 200 25 l25 24 0 1151 0 1151 -25 24 c-24 25 -27 25
-200 25 l-175 0 0 200 0 200 -80 0 -80 0 0 -200z"/>
<path d="M1920 3400 l0 -200 -175 0 c-173 0 -176 0 -200 -25 l-25 -24 0 -1151
0 -1151 25 -24 c24 -25 27 -25 200 -25 l175 0 0 -200 0 -200 80 0 80 0 0 200
0 200 175 0 c173 0 176 0 200 25 l25 24 0 1151 0 1151 -25 24 c-24 25 -27 25
-200 25 l-175 0 0 200 0 200 -80 0 -80 0 0 -200z"/>
</g>
</svg>
